<mxfile host="Electron" modified="2023-04-01T20:55:04.354Z" agent="Mozilla/5.0 (Macintosh; Intel Mac OS X 10_15_7) AppleWebKit/537.36 (KHTML, like Gecko) draw.io/21.1.2 Chrome/106.0.5249.199 Electron/21.4.3 Safari/537.36" etag="uLVpxClT95tUga8tDxvX" version="21.1.2" type="device" pages="4">
  <diagram name="AudioContext" id="_huhc2h12CH-FQ8328RR">
    <mxGraphModel dx="1114" dy="894" grid="1" gridSize="10" guides="1" tooltips="1" connect="1" arrows="1" fold="1" page="1" pageScale="1" pageWidth="1600" pageHeight="900" math="0" shadow="0">
      <root>
        <mxCell id="0" />
        <mxCell id="1" parent="0" />
        <mxCell id="VSokjLL2Qw1VUaY9bAdg-11" value="AudioContext" style="swimlane;" parent="1" vertex="1">
          <mxGeometry x="50" y="100" width="760" height="200" as="geometry" />
        </mxCell>
        <mxCell id="VSokjLL2Qw1VUaY9bAdg-1" value="Source Node" style="rounded=1;whiteSpace=wrap;html=1;fillColor=#f5f5f5;gradientColor=#b3b3b3;strokeColor=#666666;" parent="VSokjLL2Qw1VUaY9bAdg-11" vertex="1">
          <mxGeometry x="20" y="70" width="120" height="60" as="geometry" />
        </mxCell>
        <mxCell id="VSokjLL2Qw1VUaY9bAdg-2" value="Intermediary Node" style="rounded=1;whiteSpace=wrap;html=1;fillColor=#fff2cc;gradientColor=#ffd966;strokeColor=#d6b656;" parent="VSokjLL2Qw1VUaY9bAdg-11" vertex="1">
          <mxGeometry x="220" y="70" width="120" height="60" as="geometry" />
        </mxCell>
        <mxCell id="VSokjLL2Qw1VUaY9bAdg-3" value="" style="edgeStyle=orthogonalEdgeStyle;rounded=0;orthogonalLoop=1;jettySize=auto;html=1;" parent="VSokjLL2Qw1VUaY9bAdg-11" source="VSokjLL2Qw1VUaY9bAdg-1" target="VSokjLL2Qw1VUaY9bAdg-2" edge="1">
          <mxGeometry relative="1" as="geometry" />
        </mxCell>
        <mxCell id="VSokjLL2Qw1VUaY9bAdg-4" value="Intermediary Node" style="whiteSpace=wrap;html=1;rounded=1;fillColor=#fff2cc;gradientColor=#ffd966;strokeColor=#d6b656;" parent="VSokjLL2Qw1VUaY9bAdg-11" vertex="1">
          <mxGeometry x="420" y="70" width="120" height="60" as="geometry" />
        </mxCell>
        <mxCell id="VSokjLL2Qw1VUaY9bAdg-5" value="" style="edgeStyle=orthogonalEdgeStyle;rounded=0;orthogonalLoop=1;jettySize=auto;html=1;" parent="VSokjLL2Qw1VUaY9bAdg-11" source="VSokjLL2Qw1VUaY9bAdg-2" target="VSokjLL2Qw1VUaY9bAdg-4" edge="1">
          <mxGeometry relative="1" as="geometry" />
        </mxCell>
        <mxCell id="VSokjLL2Qw1VUaY9bAdg-9" value="Destination Node" style="whiteSpace=wrap;html=1;rounded=1;fillColor=#d5e8d4;gradientColor=#97d077;strokeColor=#82b366;" parent="VSokjLL2Qw1VUaY9bAdg-11" vertex="1">
          <mxGeometry x="620" y="70" width="120" height="60" as="geometry" />
        </mxCell>
        <mxCell id="VSokjLL2Qw1VUaY9bAdg-10" value="" style="edgeStyle=orthogonalEdgeStyle;rounded=0;orthogonalLoop=1;jettySize=auto;html=1;" parent="VSokjLL2Qw1VUaY9bAdg-11" source="VSokjLL2Qw1VUaY9bAdg-4" target="VSokjLL2Qw1VUaY9bAdg-9" edge="1">
          <mxGeometry relative="1" as="geometry" />
        </mxCell>
      </root>
    </mxGraphModel>
  </diagram>
  <diagram name="sample flow" id="1MogXEMzx7PUJ83Kct7t">
    <mxGraphModel dx="1114" dy="894" grid="1" gridSize="10" guides="1" tooltips="1" connect="1" arrows="1" fold="1" page="1" pageScale="1" pageWidth="1600" pageHeight="900" math="0" shadow="0">
      <root>
        <mxCell id="jE7L58r51x6Yu-PzyZFQ-0" />
        <mxCell id="jE7L58r51x6Yu-PzyZFQ-1" parent="jE7L58r51x6Yu-PzyZFQ-0" />
        <mxCell id="jE7L58r51x6Yu-PzyZFQ-2" value="AudioContext" style="swimlane;" vertex="1" parent="jE7L58r51x6Yu-PzyZFQ-1">
          <mxGeometry x="50" y="100" width="760" height="200" as="geometry" />
        </mxCell>
        <mxCell id="jE7L58r51x6Yu-PzyZFQ-3" value="Source Node" style="rounded=1;whiteSpace=wrap;html=1;fillColor=#f5f5f5;gradientColor=#b3b3b3;strokeColor=#666666;" vertex="1" parent="jE7L58r51x6Yu-PzyZFQ-2">
          <mxGeometry x="20" y="70" width="120" height="60" as="geometry" />
        </mxCell>
        <mxCell id="jE7L58r51x6Yu-PzyZFQ-4" value="GainNode" style="rounded=1;whiteSpace=wrap;html=1;fillColor=#fff2cc;gradientColor=#ffd966;strokeColor=#d6b656;" vertex="1" parent="jE7L58r51x6Yu-PzyZFQ-2">
          <mxGeometry x="220" y="70" width="120" height="60" as="geometry" />
        </mxCell>
        <mxCell id="jE7L58r51x6Yu-PzyZFQ-5" value="" style="edgeStyle=orthogonalEdgeStyle;rounded=0;orthogonalLoop=1;jettySize=auto;html=1;" edge="1" parent="jE7L58r51x6Yu-PzyZFQ-2" source="jE7L58r51x6Yu-PzyZFQ-3" target="jE7L58r51x6Yu-PzyZFQ-4">
          <mxGeometry relative="1" as="geometry" />
        </mxCell>
        <mxCell id="jE7L58r51x6Yu-PzyZFQ-6" value="AudioWorkletNode" style="whiteSpace=wrap;html=1;rounded=1;fillColor=#fff2cc;gradientColor=#ffd966;strokeColor=#d6b656;" vertex="1" parent="jE7L58r51x6Yu-PzyZFQ-2">
          <mxGeometry x="420" y="70" width="120" height="60" as="geometry" />
        </mxCell>
        <mxCell id="jE7L58r51x6Yu-PzyZFQ-7" value="" style="edgeStyle=orthogonalEdgeStyle;rounded=0;orthogonalLoop=1;jettySize=auto;html=1;" edge="1" parent="jE7L58r51x6Yu-PzyZFQ-2" source="jE7L58r51x6Yu-PzyZFQ-4" target="jE7L58r51x6Yu-PzyZFQ-6">
          <mxGeometry relative="1" as="geometry" />
        </mxCell>
        <mxCell id="jE7L58r51x6Yu-PzyZFQ-8" value="Destination Node" style="whiteSpace=wrap;html=1;rounded=1;fillColor=#d5e8d4;gradientColor=#97d077;strokeColor=#82b366;" vertex="1" parent="jE7L58r51x6Yu-PzyZFQ-2">
          <mxGeometry x="620" y="70" width="120" height="60" as="geometry" />
        </mxCell>
        <mxCell id="jE7L58r51x6Yu-PzyZFQ-9" value="" style="edgeStyle=orthogonalEdgeStyle;rounded=0;orthogonalLoop=1;jettySize=auto;html=1;" edge="1" parent="jE7L58r51x6Yu-PzyZFQ-2" source="jE7L58r51x6Yu-PzyZFQ-6" target="jE7L58r51x6Yu-PzyZFQ-8">
          <mxGeometry relative="1" as="geometry" />
        </mxCell>
      </root>
    </mxGraphModel>
  </diagram>
  <diagram id="i1v6QdmAtAEaKxL7JEbU" name="AudioWorklet">
    <mxGraphModel dx="1114" dy="894" grid="1" gridSize="10" guides="1" tooltips="1" connect="1" arrows="1" fold="1" page="1" pageScale="1" pageWidth="1600" pageHeight="900" math="0" shadow="0">
      <root>
        <mxCell id="0" />
        <mxCell id="1" parent="0" />
        <mxCell id="q6Vfja6_vscM0mdcXDyN-27" value="" style="group" vertex="1" connectable="0" parent="1">
          <mxGeometry x="150" y="200" width="400" height="200" as="geometry" />
        </mxCell>
        <mxCell id="q6Vfja6_vscM0mdcXDyN-1" value="" style="shape=mxgraph.mockup.containers.marginRect;rectMarginTop=10;strokeColor=#666666;strokeWidth=1;dashed=0;rounded=1;arcSize=5;recursiveResize=0;html=1;whiteSpace=wrap;" vertex="1" parent="q6Vfja6_vscM0mdcXDyN-27">
          <mxGeometry x="50" width="350" height="200" as="geometry" />
        </mxCell>
        <mxCell id="q6Vfja6_vscM0mdcXDyN-2" value="Main Scope" style="shape=rect;strokeColor=none;fillColor=#008cff;strokeWidth=1;dashed=0;rounded=1;arcSize=20;fontColor=#ffffff;fontSize=17;spacing=2;spacingTop=-2;align=left;autosize=1;spacingLeft=4;resizeWidth=0;resizeHeight=0;perimeter=none;html=1;whiteSpace=wrap;" vertex="1" parent="q6Vfja6_vscM0mdcXDyN-1">
          <mxGeometry x="5" width="105" height="30" as="geometry" />
        </mxCell>
        <mxCell id="q6Vfja6_vscM0mdcXDyN-3" value="AudioWorkletNode" style="rounded=1;whiteSpace=wrap;html=1;fillColor=#fff2cc;gradientColor=#ffd966;strokeColor=#d6b656;" vertex="1" parent="q6Vfja6_vscM0mdcXDyN-1">
          <mxGeometry x="60" y="70" width="240" height="60" as="geometry" />
        </mxCell>
        <mxCell id="q6Vfja6_vscM0mdcXDyN-14" value="UI Thread&amp;nbsp;" style="html=1;verticalLabelPosition=middle;align=right;labelBackgroundColor=#ffffff;verticalAlign=middle;strokeWidth=2;strokeColor=#0080F0;shadow=0;dashed=0;shape=mxgraph.ios7.icons.settings;labelPosition=left;" vertex="1" parent="q6Vfja6_vscM0mdcXDyN-1">
          <mxGeometry x="310" y="160" width="30" height="30" as="geometry" />
        </mxCell>
        <mxCell id="q6Vfja6_vscM0mdcXDyN-24" value="Interface with other audio &lt;br&gt;nodes and application" style="image;aspect=fixed;perimeter=ellipsePerimeter;html=1;align=right;shadow=0;dashed=0;spacingTop=3;image=img/lib/active_directory/interface.svg;rotation=0;flipV=0;flipH=1;labelPosition=left;verticalLabelPosition=middle;verticalAlign=middle;spacingRight=5;" vertex="1" parent="q6Vfja6_vscM0mdcXDyN-27">
          <mxGeometry y="88.25" width="50" height="23.5" as="geometry" />
        </mxCell>
        <mxCell id="q6Vfja6_vscM0mdcXDyN-6" value="" style="shape=mxgraph.mockup.containers.marginRect;rectMarginTop=10;strokeColor=#666666;strokeWidth=1;dashed=0;rounded=1;arcSize=5;recursiveResize=0;html=1;whiteSpace=wrap;" vertex="1" parent="1">
          <mxGeometry x="700" y="200" width="350" height="200" as="geometry" />
        </mxCell>
        <mxCell id="q6Vfja6_vscM0mdcXDyN-7" value="AudioWorkletGlobalScope" style="shape=rect;strokeColor=none;fillColor=#FF9999;strokeWidth=1;dashed=0;rounded=1;arcSize=20;fontColor=#ffffff;fontSize=17;spacing=2;spacingTop=-2;align=left;autosize=1;spacingLeft=4;resizeWidth=0;resizeHeight=0;perimeter=none;html=1;whiteSpace=wrap;" vertex="1" parent="q6Vfja6_vscM0mdcXDyN-6">
          <mxGeometry x="5" width="220" height="30" as="geometry" />
        </mxCell>
        <mxCell id="q6Vfja6_vscM0mdcXDyN-8" value="AudioWorkletProcessor" style="rounded=1;whiteSpace=wrap;html=1;fillColor=#dae8fc;gradientColor=#7ea6e0;strokeColor=#6c8ebf;verticalAlign=top;" vertex="1" parent="q6Vfja6_vscM0mdcXDyN-6">
          <mxGeometry x="60" y="45" width="240" height="110" as="geometry" />
        </mxCell>
        <mxCell id="q6Vfja6_vscM0mdcXDyN-11" value="Custom Audio &lt;br&gt;Processing Script" style="points=[[0.25,0,0],[0.5,0,0],[0.75,0,0],[1,0.25,0],[1,0.5,0],[1,0.75,0],[0.75,1,0],[0.5,1,0],[0.25,1,0],[0,0.75,0],[0,0.5,0],[0,0.25,0]];shape=mxgraph.bpmn.task;whiteSpace=wrap;rectStyle=rounded;size=10;html=1;container=1;expand=0;collapsible=0;taskMarker=script;" vertex="1" parent="q6Vfja6_vscM0mdcXDyN-6">
          <mxGeometry x="75" y="80" width="210" height="50" as="geometry" />
        </mxCell>
        <mxCell id="q6Vfja6_vscM0mdcXDyN-18" value="Audio Render Thread&amp;nbsp;" style="html=1;verticalLabelPosition=middle;align=right;labelBackgroundColor=#ffffff;verticalAlign=middle;strokeWidth=2;strokeColor=#0080F0;shadow=0;dashed=0;shape=mxgraph.ios7.icons.settings;labelPosition=left;" vertex="1" parent="q6Vfja6_vscM0mdcXDyN-6">
          <mxGeometry x="310" y="160" width="30" height="30" as="geometry" />
        </mxCell>
        <mxCell id="q6Vfja6_vscM0mdcXDyN-12" style="edgeStyle=orthogonalEdgeStyle;rounded=0;orthogonalLoop=1;jettySize=auto;html=1;exitX=1;exitY=0.5;exitDx=0;exitDy=0;entryX=0;entryY=0.5;entryDx=0;entryDy=0;startArrow=classic;startFill=1;dashed=1;" edge="1" parent="1" source="q6Vfja6_vscM0mdcXDyN-3" target="q6Vfja6_vscM0mdcXDyN-8">
          <mxGeometry relative="1" as="geometry" />
        </mxCell>
        <mxCell id="q6Vfja6_vscM0mdcXDyN-20" value="Bi-directional messaging" style="shape=image;verticalLabelPosition=bottom;labelBackgroundColor=default;verticalAlign=top;aspect=fixed;imageAspect=0;image=https://pbs.twimg.com/media/FGfGvR9XEAAAXMH.png;" vertex="1" parent="1">
          <mxGeometry x="590" y="265" width="70.18" height="70" as="geometry" />
        </mxCell>
        <mxCell id="q6Vfja6_vscM0mdcXDyN-21" value="Audio Output" style="shape=mxgraph.uml25.inputPin;html=1;points=[[0,0.5],[1,0.5]];flipH=1;labelPosition=right;verticalLabelPosition=middle;align=left;verticalAlign=middle;" vertex="1" parent="1">
          <mxGeometry x="1050" y="320" width="30" height="30" as="geometry" />
        </mxCell>
        <mxCell id="q6Vfja6_vscM0mdcXDyN-22" value="Audio Input" style="shape=mxgraph.uml25.inputPin;html=1;points=[[0,0.5],[1,0.5]];labelPosition=right;verticalLabelPosition=middle;align=left;verticalAlign=middle;" vertex="1" parent="1">
          <mxGeometry x="1050" y="250" width="30" height="30" as="geometry" />
        </mxCell>
      </root>
    </mxGraphModel>
  </diagram>
  <diagram id="-p08bkz3Snb5bb3IvSGh" name="arch">
    <mxGraphModel dx="1114" dy="894" grid="1" gridSize="10" guides="1" tooltips="1" connect="1" arrows="1" fold="1" page="1" pageScale="1" pageWidth="1600" pageHeight="900" math="0" shadow="0">
      <root>
        <mxCell id="0" />
        <mxCell id="1" parent="0" />
        <mxCell id="CZdfkomrfAheNTd8RUHt-3" style="edgeStyle=orthogonalEdgeStyle;rounded=0;orthogonalLoop=1;jettySize=auto;html=1;exitX=1;exitY=0.5;exitDx=0;exitDy=0;exitPerimeter=0;" edge="1" parent="1" source="CZdfkomrfAheNTd8RUHt-1" target="CZdfkomrfAheNTd8RUHt-2">
          <mxGeometry relative="1" as="geometry" />
        </mxCell>
        <mxCell id="CZdfkomrfAheNTd8RUHt-5" style="edgeStyle=orthogonalEdgeStyle;rounded=0;orthogonalLoop=1;jettySize=auto;html=1;exitX=0;exitY=0.5;exitDx=0;exitDy=0;exitPerimeter=0;" edge="1" parent="1" source="CZdfkomrfAheNTd8RUHt-1" target="CZdfkomrfAheNTd8RUHt-4">
          <mxGeometry relative="1" as="geometry" />
        </mxCell>
        <mxCell id="CZdfkomrfAheNTd8RUHt-1" value="PCM Generator" style="outlineConnect=0;dashed=0;verticalLabelPosition=bottom;verticalAlign=top;align=center;html=1;shape=mxgraph.aws3.android;fillColor=#8CC64F;gradientColor=none;" vertex="1" parent="1">
          <mxGeometry x="620" y="330" width="73.5" height="84" as="geometry" />
        </mxCell>
        <mxCell id="CZdfkomrfAheNTd8RUHt-2" value="Turkish March" style="shadow=0;dashed=0;html=1;strokeColor=none;fillColor=#4495D1;labelPosition=center;verticalLabelPosition=bottom;verticalAlign=top;align=center;outlineConnect=0;shape=mxgraph.veeam.audio_file;" vertex="1" parent="1">
          <mxGeometry x="770" y="346.6" width="36.8" height="50.8" as="geometry" />
        </mxCell>
        <mxCell id="CZdfkomrfAheNTd8RUHt-10" style="edgeStyle=orthogonalEdgeStyle;rounded=0;orthogonalLoop=1;jettySize=auto;html=1;exitX=0;exitY=0.5;exitDx=0;exitDy=0;exitPerimeter=0;" edge="1" parent="1" source="CZdfkomrfAheNTd8RUHt-4" target="CZdfkomrfAheNTd8RUHt-9">
          <mxGeometry relative="1" as="geometry" />
        </mxCell>
        <mxCell id="CZdfkomrfAheNTd8RUHt-4" value="HTTP Streamer" style="outlineConnect=0;dashed=0;verticalLabelPosition=bottom;verticalAlign=top;align=center;html=1;shape=mxgraph.aws3.android;fillColor=#8CC64F;gradientColor=none;" vertex="1" parent="1">
          <mxGeometry x="440" y="330.01" width="73.5" height="84" as="geometry" />
        </mxCell>
        <mxCell id="CZdfkomrfAheNTd8RUHt-12" style="edgeStyle=orthogonalEdgeStyle;rounded=0;orthogonalLoop=1;jettySize=auto;html=1;entryX=0.5;entryY=0;entryDx=0;entryDy=0;entryPerimeter=0;" edge="1" parent="1" source="CZdfkomrfAheNTd8RUHt-9" target="CZdfkomrfAheNTd8RUHt-11">
          <mxGeometry relative="1" as="geometry" />
        </mxCell>
        <mxCell id="CZdfkomrfAheNTd8RUHt-9" value="Browser" style="sketch=0;pointerEvents=1;shadow=0;dashed=0;html=1;strokeColor=none;fillColor=#434445;aspect=fixed;labelPosition=center;verticalLabelPosition=bottom;verticalAlign=top;align=center;outlineConnect=0;shape=mxgraph.vvd.web_browser;labelBackgroundColor=default;" vertex="1" parent="1">
          <mxGeometry x="220" y="334.13" width="106.69" height="75.75" as="geometry" />
        </mxCell>
        <mxCell id="CZdfkomrfAheNTd8RUHt-11" value="WebAudio API" style="html=1;whiteSpace=wrap;strokeColor=none;fillColor=#0079D6;labelPosition=center;verticalLabelPosition=middle;verticalAlign=top;align=center;fontSize=12;outlineConnect=0;spacingTop=-6;fontColor=#FFFFFF;sketch=0;shape=mxgraph.sitemap.audio;" vertex="1" parent="1">
          <mxGeometry x="213.35000000000002" y="480" width="120" height="70" as="geometry" />
        </mxCell>
      </root>
    </mxGraphModel>
  </diagram>
</mxfile>
